<svg xmlns="http://www.w3.org/2000/svg" viewBox="0 0 680 220">
  <defs>
    <linearGradient id="bg" x1="0%" y1="0%" x2="100%" y2="100%">
      <stop offset="0%" style="stop-color:#0c0c0c"/>
      <stop offset="100%" style="stop-color:#161625"/>
    </linearGradient>
    <linearGradient id="accent" x1="0%" y1="0%" x2="100%" y2="0%">
      <stop offset="0%" style="stop-color:#fb8817"/>
      <stop offset="50%" style="stop-color:#e44b31"/>
      <stop offset="100%" style="stop-color:#c02a88"/>
    </linearGradient>
  </defs>

  <rect width="680" height="220" fill="url(#bg)" rx="12"/>
  <rect x="0" y="214" width="680" height="6" fill="url(#accent)" rx="0"/>

  <!-- Embedding space: subtle axes -->
  <g transform="translate(40, 30)">
    <line x1="55" y1="0" x2="55" y2="155" stroke="#333333" stroke-width="0.5"/>
    <line x1="0" y1="80" x2="115" y2="80" stroke="#333333" stroke-width="0.5"/>

    <!-- Cluster 1: query-like (orange tones, upper-right) -->
    <circle cx="78" cy="32" r="5" fill="#fb8817" opacity="0.8"/>
    <circle cx="90" cy="42" r="4" fill="#fb8817" opacity="0.6"/>
    <circle cx="72" cy="45" r="3.5" fill="#f5a623" opacity="0.5"/>
    <circle cx="85" cy="28" r="3" fill="#f5a623" opacity="0.45"/>
    <circle cx="95" cy="35" r="2.5" fill="#fb8817" opacity="0.35"/>

    <!-- Cluster 2: document-like (pink tones, lower-right) -->
    <circle cx="82" cy="105" r="5" fill="#c02a88" opacity="0.8"/>
    <circle cx="95" cy="115" r="4" fill="#c02a88" opacity="0.6"/>
    <circle cx="75" cy="118" r="3.5" fill="#d94f9e" opacity="0.5"/>
    <circle cx="100" cy="100" r="3" fill="#d94f9e" opacity="0.45"/>
    <circle cx="88" cy="125" r="2.5" fill="#c02a88" opacity="0.35"/>

    <!-- Cluster 3: another topic (red tones, left) -->
    <circle cx="22" cy="55" r="4.5" fill="#e44b31" opacity="0.7"/>
    <circle cx="15" cy="68" r="3.5" fill="#e44b31" opacity="0.5"/>
    <circle cx="30" cy="70" r="3" fill="#e85d45" opacity="0.45"/>
    <circle cx="10" cy="58" r="2.5" fill="#e85d45" opacity="0.35"/>

    <!-- Scattered outliers -->
    <circle cx="42" cy="140" r="2" fill="#888888" opacity="0.25"/>
    <circle cx="105" cy="72" r="2" fill="#888888" opacity="0.2"/>
    <circle cx="35" cy="15" r="1.5" fill="#888888" opacity="0.2"/>
  </g>

  <!-- Title -->
  <text x="180" y="82" font-family="system-ui, -apple-system, sans-serif" font-size="32" font-weight="700" fill="#ffffff" letter-spacing="-0.5">
    jina-embeddings-v5
  </text>

  <!-- Subtitle -->
  <text x="180" y="112" font-family="system-ui, -apple-system, sans-serif" font-size="16" fill="#777777" font-weight="400">
    local Docker setup with llama.cpp
  </text>

  <!-- Tags row -->
  <g transform="translate(180, 132)">
    <rect x="0" y="0" width="55" height="24" rx="5" fill="#ffffff" opacity="0.06" stroke="#ffffff" stroke-opacity="0.1" stroke-width="1"/>
    <text x="27" y="16" font-family="ui-monospace, monospace" font-size="10.5" fill="#999999" text-anchor="middle">nano</text>

    <rect x="62" y="0" width="55" height="24" rx="5" fill="#ffffff" opacity="0.06" stroke="#ffffff" stroke-opacity="0.1" stroke-width="1"/>
    <text x="89" y="16" font-family="ui-monospace, monospace" font-size="10.5" fill="#999999" text-anchor="middle">small</text>

    <rect x="124" y="0" width="88" height="24" rx="5" fill="#ffffff" opacity="0.06" stroke="#ffffff" stroke-opacity="0.1" stroke-width="1"/>
    <text x="168" y="16" font-family="ui-monospace, monospace" font-size="10.5" fill="#999999" text-anchor="middle">matryoshka</text>

    <rect x="219" y="0" width="55" height="24" rx="5" fill="#ffffff" opacity="0.06" stroke="#ffffff" stroke-opacity="0.1" stroke-width="1"/>
    <text x="246" y="16" font-family="ui-monospace, monospace" font-size="10.5" fill="#999999" text-anchor="middle">GGUF</text>
  </g>

  <!-- Brand text labels -->
  <g transform="translate(180, 185)">
    <text x="0" y="0" font-family="system-ui, -apple-system, sans-serif" font-size="12" font-weight="600" fill="#fb8817" opacity="0.7">jina.ai</text>
    <text x="48" y="0" font-family="system-ui, -apple-system, sans-serif" font-size="12" fill="#555555">+</text>
    <text x="62" y="0" font-family="system-ui, -apple-system, sans-serif" font-size="12" font-weight="600" fill="#00bfb3" opacity="0.7">elastic</text>
    <text x="110" y="0" font-family="system-ui, -apple-system, sans-serif" font-size="12" fill="#555555">+</text>
    <text x="124" y="0" font-family="system-ui, -apple-system, sans-serif" font-size="12" font-weight="600" fill="#999999" opacity="0.7">llama.cpp</text>
  </g>
</svg>
